<?xml version="1.0" encoding="utf-8"?>
<!-- Generator: Adobe Illustrator 16.0.3, SVG Export Plug-In . SVG Version: 6.00 Build 0)  -->
<!DOCTYPE svg PUBLIC "-//W3C//DTD SVG 1.1//EN" "http://www.w3.org/Graphics/SVG/1.1/DTD/svg11.dtd">
<svg version="1.1" id="Layer_1" xmlns="http://www.w3.org/2000/svg" xmlns:xlink="http://www.w3.org/1999/xlink" x="0px" y="0px"
	 width="40px" height="40px" viewBox="0 0 307.613 307.758" enable-background="new 0 0 307.613 307.758"
	 xml:space="preserve">
<g>
	<path fill-rule="evenodd" fill="#fff" clip-rule="evenodd" d="M169.125,306.903c0-7.688,0-15.375,0-23.063
		c36.465-5.104,62.057-21.082,82-42.708c14.388-16.147,25.844-36.916,30.75-62.781c5.265-27.761,0.512-56.512-9.396-78.583
		c-18.921-42.148-56.041-70.665-110.615-76.021c-0.996,93.816-0.142,189.483-0.427,284.01c-5.125,0-10.25,0-15.375,0
		c0-94.671,0-189.338,0-284.01C91.189,28.932,53.982,57.532,35.021,99.769c-9.927,22.113-14.78,51.111-9.396,79.01
		c4.937,25.581,16.449,46.767,31.177,62.354c19.396,22.03,45.38,37.474,81.573,42.708c0,7.688,0,15.375,0,23.063
		c-44.352-4.763-74.276-23.952-98.229-49.114c-17.435-19.66-31.173-43.141-37.156-73.031C-3.59,151.882,1.07,117.243,13.24,90.8
		C35.022,43.472,82.368,3.576,144.782,0.258c52.013-2.765,84.628,17.059,112.323,39.719c25.16,23.644,46.275,56.224,49.968,102.073
		c4.05,50.283-15.267,86.129-37.583,113.604C245.053,281.756,214.794,302.033,169.125,306.903z"/>
	<path fill-rule="evenodd" fill="#fff" clip-rule="evenodd" d="M137.521,31.862c0.285,0,0.569,0,0.854,0c0,25.34,0,50.681,0,76.021
		c-7.688,0-15.375,0-23.063,0c0-15.232,0-30.465,0-45.698c-28.714,11.858-50.034,34.813-58.51,68.333
		c26.337,0.996,54.524,0.142,81.573,0.427c0,48.403,0,96.805,0,145.208c-58.078-10.114-92.459-43.921-105.489-99.083
		c19.788,0,39.576,0,59.364,0c0,7.688,0,15.375,0,23.063c-8.826,0-17.653,0-26.479,0c9.518,20.662,27.577,36.485,49.542,46.125
		c0-30.608,0-61.215,0-91.823c-27.333-0.997-56.517-0.143-84.562-0.427c0.583-35.098,13.211-62.243,31.177-82.427
		C79.652,51.668,106.134,36.669,137.521,31.862z"/>
	<path fill-rule="evenodd" fill="#fff" clip-rule="evenodd" d="M169.552,31.862c49.01,7.935,79.189,34.699,97.375,73.458
		c20.66,42.25,5.562,106.878-20.927,129.406c-0.208-12.886,0-41.854,0-41.854s3.166-8.375,4.271-12.386
		c9.406-34.159-1.999-70.78-19.646-90.114c0,53.1,0,106.202,0,159.302c-6.313,5.93-15.167,11.596-23.063,14.521
		c0-64.49,0-128.978,0-193.469c-5.021-4.636-10.124-6.105-15.375-8.969c0,69.756,0,139.516,0,209.271
		c-7.227,2.169-14.728,4.063-23.063,5.125c0-81.001,0-162.008,0-243.01C169.089,32.538,169.055,31.934,169.552,31.862z"/>
</g>
</svg>
