<svg id="fb" xmlns="http://www.w3.org/2000/svg" width="47" height="47" viewBox="0 0 47 47">
  <metadata><?xpacket begin="﻿" id="W5M0MpCehiHzreSzNTczkc9d"?>
<x:xmpmeta xmlns:x="adobe:ns:meta/" x:xmptk="Adobe XMP Core 5.6-c138 79.159824, 2016/09/14-01:09:01        ">
   <rdf:RDF xmlns:rdf="http://www.w3.org/1999/02/22-rdf-syntax-ns#">
      <rdf:Description rdf:about=""/>
   </rdf:RDF>
</x:xmpmeta>
                                                                                                    
                                                                                                    
                                                                                                    
                                                                                                    
                                                                                                    
                                                                                                    
                                                                                                    
                                                                                                    
                                                                                                    
                                                                                                    
                                                                                                    
                                                                                                    
                                                                                                    
                                                                                                    
                                                                                                    
                                                                                                    
                                                                                                    
                                                                                                    
                                                                                                    
                                                                                                    
                           
<?xpacket end="w"?></metadata>
<defs>
    <style>
      .cls-1 {
        fill: #fff;
        stroke: #e6eaf3;
        stroke-width: 1px;
      }

      .cls-2 {
        fill: #353c3f;
        fill-rule: evenodd;
      }
    </style>
  </defs>
  <circle class="cls-1" cx="23.5" cy="23.5" r="23"/>
  <path id="facebook" class="cls-2" d="M1140.66,3584h-2.16a3.719,3.719,0,0,0-3.99,3.94v1.81h-2.16a0.335,0.335,0,0,0-.34.33v2.63a0.335,0.335,0,0,0,.34.33h2.16v6.63a0.342,0.342,0,0,0,.34.33h2.83a0.335,0.335,0,0,0,.34-0.33v-6.63h2.53a0.335,0.335,0,0,0,.34-0.33v-2.63a0.29,0.29,0,0,0-.1-0.23,0.349,0.349,0,0,0-.24-0.1h-2.53v-1.54c0-.73.18-1.11,1.18-1.11h1.46a0.333,0.333,0,0,0,.33-0.33v-2.44A0.333,0.333,0,0,0,1140.66,3584Z" transform="translate(-1112.5 -3568.5)"/>
</svg>
