<svg id="insta" xmlns="http://www.w3.org/2000/svg" width="47" height="47" viewBox="0 0 47 47">
  <metadata><?xpacket begin="﻿" id="W5M0MpCehiHzreSzNTczkc9d"?>
<x:xmpmeta xmlns:x="adobe:ns:meta/" x:xmptk="Adobe XMP Core 5.6-c138 79.159824, 2016/09/14-01:09:01        ">
   <rdf:RDF xmlns:rdf="http://www.w3.org/1999/02/22-rdf-syntax-ns#">
      <rdf:Description rdf:about=""/>
   </rdf:RDF>
</x:xmpmeta>
                                                                                                    
                                                                                                    
                                                                                                    
                                                                                                    
                                                                                                    
                                                                                                    
                                                                                                    
                                                                                                    
                                                                                                    
                                                                                                    
                                                                                                    
                                                                                                    
                                                                                                    
                                                                                                    
                                                                                                    
                                                                                                    
                                                                                                    
                                                                                                    
                                                                                                    
                                                                                                    
                           
<?xpacket end="w"?></metadata>
<defs>
    <style>
      .cls-1 {
        fill: #fff;
        stroke: #e6eaf3;
        stroke-width: 1px;
      }

      .cls-2 {
        fill: #353c3f;
        fill-rule: evenodd;
      }
    </style>
  </defs>
  <circle id="Ellipse_8_copy_3" data-name="Ellipse 8 copy 3" class="cls-1" cx="23.5" cy="23.5" r="23"/>
  <path id="instagram" class="cls-2" d="M1337.58,3584h-7.17a4.419,4.419,0,0,0-4.41,4.42v7.16a4.419,4.419,0,0,0,4.41,4.42h7.17a4.419,4.419,0,0,0,4.41-4.42v-7.16A4.419,4.419,0,0,0,1337.58,3584Zm2.99,11.58a2.994,2.994,0,0,1-2.99,3h-7.17a3,3,0,0,1-3-3v-7.16a3.009,3.009,0,0,1,3-3h7.17a3,3,0,0,1,2.99,3v7.16h0Zm-6.58-7.7a4.12,4.12,0,1,0,4.13,4.12A4.127,4.127,0,0,0,1333.99,3587.88Zm0,6.82a2.7,2.7,0,1,1,2.71-2.7A2.7,2.7,0,0,1,1333.99,3594.7Zm4.3-8.02a1.07,1.07,0,0,0-.74.3,1.05,1.05,0,0,0,0,1.47,1.037,1.037,0,0,0,.74.31,1.039,1.039,0,0,0,.73-1.78A1.046,1.046,0,0,0,1338.29,3586.68Z" transform="translate(-1310.5 -3568.5)"/>
</svg>
