<svg id="twitter" xmlns="http://www.w3.org/2000/svg" width="47" height="47" viewBox="0 0 47 47">
  <metadata><?xpacket begin="﻿" id="W5M0MpCehiHzreSzNTczkc9d"?>
<x:xmpmeta xmlns:x="adobe:ns:meta/" x:xmptk="Adobe XMP Core 5.6-c138 79.159824, 2016/09/14-01:09:01        ">
   <rdf:RDF xmlns:rdf="http://www.w3.org/1999/02/22-rdf-syntax-ns#">
      <rdf:Description rdf:about=""/>
   </rdf:RDF>
</x:xmpmeta>
                                                                                                    
                                                                                                    
                                                                                                    
                                                                                                    
                                                                                                    
                                                                                                    
                                                                                                    
                                                                                                    
                                                                                                    
                                                                                                    
                                                                                                    
                                                                                                    
                                                                                                    
                                                                                                    
                                                                                                    
                                                                                                    
                                                                                                    
                                                                                                    
                                                                                                    
                                                                                                    
                           
<?xpacket end="w"?></metadata>
<defs>
    <style>
      .cls-1 {
        fill: #fff;
        stroke: #e6eaf3;
        stroke-width: 1px;
      }

      .cls-2 {
        fill: #353c3f;
        fill-rule: evenodd;
      }
    </style>
  </defs>
  <circle id="Ellipse_8_copy" data-name="Ellipse 8 copy" class="cls-1" cx="23.5" cy="23.5" r="23"/>
  <path id="twitter-2" data-name="twitter" class="cls-2" d="M1211.48,3584.27a7.872,7.872,0,0,1-2.48.92,3.923,3.923,0,0,0-2.84-1.2,3.844,3.844,0,0,0-3.9,3.79,3.572,3.572,0,0,0,.1.87,11.217,11.217,0,0,1-8.04-3.96,3.734,3.734,0,0,0-.52,1.9,3.775,3.775,0,0,0,1.73,3.16,4.059,4.059,0,0,1-1.77-.48v0.05a3.827,3.827,0,0,0,3.13,3.71,3.88,3.88,0,0,1-1.03.14,4.4,4.4,0,0,1-.73-0.07,3.9,3.9,0,0,0,3.64,2.63,7.92,7.92,0,0,1-4.84,1.62c-0.32,0-.63-0.02-0.93-0.05a11.226,11.226,0,0,0,5.98,1.7,10.851,10.851,0,0,0,11.09-10.78l-0.02-.49a7.57,7.57,0,0,0,1.95-1.96,7.968,7.968,0,0,1-2.24.6A3.834,3.834,0,0,0,1211.48,3584.27Z" transform="translate(-1178.5 -3568.5)"/>
</svg>
